<svg xmlns="http://www.w3.org/2000/svg" xmlns:xlink="http://www.w3.org/1999/xlink" width="1366" zoomAndPan="magnify" viewBox="0 0 1024.5 576" height="768" preserveAspectRatio="xMidYMid meet" version="1.0"><defs><clipPath id="cf91d3f4e3"><path d="M 0 0.140625 L 1024 0.140625 L 1024 575.859375 L 0 575.859375 Z M 0 0.140625 " clip-rule="nonzero"/></clipPath><clipPath id="f389a9d45a"><path d="M 267 94 L 719 94 L 719 524.53125 L 267 524.53125 Z M 267 94 " clip-rule="nonzero"/></clipPath><clipPath id="7aaa4d3d49"><path d="M 270 81 L 743.269531 81 L 743.269531 514 L 270 514 Z M 270 81 " clip-rule="nonzero"/></clipPath><clipPath id="f6f30d8c67"><path d="M 236.269531 52.03125 L 730 52.03125 L 730 190 L 236.269531 190 Z M 236.269531 52.03125 " clip-rule="nonzero"/></clipPath></defs><g clip-path="url(#cf91d3f4e3)"><path fill="#ffffff" d="M 0 0.140625 L 1024.5 0.140625 L 1024.5 576.140625 L 0 576.140625 Z M 0 0.140625 " fill-opacity="1" fill-rule="nonzero"/><path fill="#ffffff" d="M 0 0.140625 L 1024.5 0.140625 L 1024.5 576.140625 L 0 576.140625 Z M 0 0.140625 " fill-opacity="1" fill-rule="nonzero"/></g><g clip-path="url(#f389a9d45a)"><path fill="#d0b5c5" d="M 270.953125 100.84375 C 271.910156 80.9375 689.738281 114.519531 689.738281 114.519531 C 689.738281 114.519531 674.898438 287.078125 718.847656 511.390625 L 295.886719 524.417969 C 295.886719 524.417969 255.996094 410.898438 270.953125 100.84375 Z M 270.953125 100.84375 " fill-opacity="0.4" fill-rule="nonzero"/></g><g clip-path="url(#7aaa4d3d49)"><path fill="#f0a3c7" d="M 270.769531 90.648438 C 271.023438 70.722656 689.78125 89.515625 689.78125 89.515625 C 689.78125 89.515625 691.4375 262.972656 743.269531 485.597656 L 310.625 513.070312 C 310.625 513.070312 266.757812 401.03125 270.769531 90.648438 Z M 270.769531 90.648438 " fill-opacity="1" fill-rule="nonzero"/></g><g clip-path="url(#f6f30d8c67)"><path fill="#b6dedd" d="M 605.96875 53.855469 L 729.96875 154.96875 L 701.558594 189.890625 L 577.558594 88.777344 Z M 261.796875 180.105469 L 393.46875 89.230469 L 367.941406 52.15625 L 236.269531 143.035156 Z M 261.796875 180.105469 " fill-opacity="0.7" fill-rule="nonzero"/></g></svg>